<?xml version="1.0" encoding="UTF-8" standalone="no"?>
<!DOCTYPE svg PUBLIC "-//W3C//DTD SVG 1.1//EN"
 "http://www.w3.org/Graphics/SVG/1.1/DTD/svg11.dtd">
<!-- Generated by graphviz version 2.34.0 (20130907.0228)
 -->
<!-- Title: %3 Pages: 1 -->
<svg width="1473pt" height="268pt"
 viewBox="0.00 0.00 1473.00 268.00" xmlns="http://www.w3.org/2000/svg" xmlns:xlink="http://www.w3.org/1999/xlink">
<g id="graph0" class="graph" transform="scale(1 1) rotate(0) translate(4 264)">
<title>%3</title>
<polygon fill="white" stroke="white" points="-4,4 -4,-264 1469,-264 1469,4 -4,4"/>
<!-- org_liveSense_framework_apacheds -->
<g id="node1" class="node"><title>org_liveSense_framework_apacheds</title>
<polygon fill="yellow" stroke="black" points="598,-223 598,-259 796,-259 796,-223 598,-223"/>
<text text-anchor="middle" x="697" y="-248.1" font-family="Arial" font-size="8.00">liveSense :: Framework :: ApacheDS</text>
<polyline fill="none" stroke="black" points="598,-241 796,-241 "/>
<text text-anchor="middle" x="697" y="-230.1" font-family="Arial" font-size="8.00">org.liveSense.framework.apacheds(2&#45;SNAPSHOT)</text>
</g>
<!-- org_apache_commons_io -->
<g id="node2" class="node"><title>org_apache_commons_io</title>
<polygon fill="green" stroke="black" points="0,-149 0,-185 120,-185 120,-149 0,-149"/>
<text text-anchor="middle" x="60" y="-174.1" font-family="Arial" font-size="8.00">Apache Commons IO Bundle</text>
<polyline fill="none" stroke="black" points="0,-167 120,-167 "/>
<text text-anchor="middle" x="60" y="-156.1" font-family="Arial" font-size="8.00">org.apache.commons.io(1.4)</text>
</g>
<!-- org_liveSense_framework_apacheds&#45;&gt;org_apache_commons_io -->
<g id="edge1" class="edge"><title>org_liveSense_framework_apacheds&#45;&gt;org_apache_commons_io</title>
<path fill="none" stroke="yellow" d="M597.846,-235.4C486.202,-229.129 299.37,-215.351 130.175,-186.05"/>
<polygon fill="yellow" stroke="yellow" points="130.54,-182.561 120.085,-184.281 129.33,-189.456 130.54,-182.561"/>
</g>
<!-- org_apache_commons_collections -->
<g id="node3" class="node"><title>org_apache_commons_collections</title>
<polygon fill="green" stroke="black" points="138,-149 138,-185 294,-185 294,-149 138,-149"/>
<text text-anchor="middle" x="216" y="-174.1" font-family="Arial" font-size="8.00">Commons Collections</text>
<polyline fill="none" stroke="black" points="138,-167 294,-167 "/>
<text text-anchor="middle" x="216" y="-156.1" font-family="Arial" font-size="8.00">org.apache.commons.collections(3.2.1)</text>
</g>
<!-- org_liveSense_framework_apacheds&#45;&gt;org_apache_commons_collections -->
<g id="edge2" class="edge"><title>org_liveSense_framework_apacheds&#45;&gt;org_apache_commons_collections</title>
<path fill="none" stroke="yellow" d="M597.799,-228.186C520.584,-218.567 410.528,-203.933 304.115,-185.956"/>
<polygon fill="yellow" stroke="yellow" points="304.606,-182.489 294.16,-184.263 303.432,-189.39 304.606,-182.489"/>
</g>
<!-- org_apache_commons_lang -->
<g id="node4" class="node"><title>org_apache_commons_lang</title>
<polygon fill="green" stroke="black" points="312.5,-149 312.5,-185 439.5,-185 439.5,-149 312.5,-149"/>
<text text-anchor="middle" x="376" y="-174.1" font-family="Arial" font-size="8.00">Commons Lang</text>
<polyline fill="none" stroke="black" points="312.5,-167 439.5,-167 "/>
<text text-anchor="middle" x="376" y="-156.1" font-family="Arial" font-size="8.00">org.apache.commons.lang(2.6)</text>
</g>
<!-- org_liveSense_framework_apacheds&#45;&gt;org_apache_commons_lang -->
<g id="edge3" class="edge"><title>org_liveSense_framework_apacheds&#45;&gt;org_apache_commons_lang</title>
<path fill="none" stroke="yellow" d="M616.178,-222.986C570.103,-213.148 511.049,-200.309 449.564,-186.102"/>
<polygon fill="yellow" stroke="yellow" points="450.209,-182.658 439.677,-183.81 448.628,-189.478 450.209,-182.658"/>
</g>
<!-- org_apache_commons_pool -->
<g id="node5" class="node"><title>org_apache_commons_pool</title>
<polygon fill="green" stroke="black" points="458,-149 458,-185 592,-185 592,-149 458,-149"/>
<text text-anchor="middle" x="525" y="-174.1" font-family="Arial" font-size="8.00">Commons Pool</text>
<polyline fill="none" stroke="black" points="458,-167 592,-167 "/>
<text text-anchor="middle" x="525" y="-156.1" font-family="Arial" font-size="8.00">org.apache.commons.pool(1.5.6)</text>
</g>
<!-- org_liveSense_framework_apacheds&#45;&gt;org_apache_commons_pool -->
<g id="edge4" class="edge"><title>org_liveSense_framework_apacheds&#45;&gt;org_apache_commons_pool</title>
<path fill="none" stroke="yellow" d="M656.238,-222.937C631.908,-212.752 600.823,-199.74 575.014,-188.936"/>
<polygon fill="yellow" stroke="yellow" points="576.343,-185.698 565.767,-185.065 573.64,-192.155 576.343,-185.698"/>
</g>
<!-- org_apache_servicemix_bundles_antlr -->
<g id="node6" class="node"><title>org_apache_servicemix_bundles_antlr</title>
<polygon fill="green" stroke="black" points="610,-149 610,-185 784,-185 784,-149 610,-149"/>
<text text-anchor="middle" x="697" y="-174.1" font-family="Arial" font-size="8.00">Apache ServiceMix :: Bundles :: antlr</text>
<polyline fill="none" stroke="black" points="610,-167 784,-167 "/>
<text text-anchor="middle" x="697" y="-156.1" font-family="Arial" font-size="8.00">org.apache.servicemix.bundles.antlr(2.7.7.4)</text>
</g>
<!-- org_liveSense_framework_apacheds&#45;&gt;org_apache_servicemix_bundles_antlr -->
<g id="edge5" class="edge"><title>org_liveSense_framework_apacheds&#45;&gt;org_apache_servicemix_bundles_antlr</title>
<path fill="none" stroke="yellow" d="M697,-222.937C697,-214.807 697,-204.876 697,-195.705"/>
<polygon fill="yellow" stroke="yellow" points="700.5,-195.441 697,-185.441 693.5,-195.441 700.5,-195.441"/>
</g>
<!-- bcprov -->
<g id="node7" class="node"><title>bcprov</title>
<polygon fill="green" stroke="black" points="802.5,-149 802.5,-185 863.5,-185 863.5,-149 802.5,-149"/>
<text text-anchor="middle" x="833" y="-174.1" font-family="Arial" font-size="8.00">bcprov</text>
<polyline fill="none" stroke="black" points="802.5,-167 863.5,-167 "/>
<text text-anchor="middle" x="833" y="-156.1" font-family="Arial" font-size="8.00">bcprov(1.46)</text>
</g>
<!-- org_liveSense_framework_apacheds&#45;&gt;bcprov -->
<g id="edge6" class="edge"><title>org_liveSense_framework_apacheds&#45;&gt;bcprov</title>
<path fill="none" stroke="yellow" d="M729.23,-222.937C748.439,-212.768 772.972,-199.78 793.36,-188.986"/>
<polygon fill="yellow" stroke="yellow" points="795.202,-191.971 802.402,-184.199 791.927,-185.785 795.202,-191.971"/>
</g>
<!-- org_apache_servicemix_bundles_ehcache -->
<g id="node8" class="node"><title>org_apache_servicemix_bundles_ehcache</title>
<polygon fill="green" stroke="black" points="881.5,-149 881.5,-185 1070.5,-185 1070.5,-149 881.5,-149"/>
<text text-anchor="middle" x="976" y="-174.1" font-family="Arial" font-size="8.00">Apache ServiceMix :: Bundles :: ehcache</text>
<polyline fill="none" stroke="black" points="881.5,-167 1070.5,-167 "/>
<text text-anchor="middle" x="976" y="-156.1" font-family="Arial" font-size="8.00">org.apache.servicemix.bundles.ehcache(2.5.2.1)</text>
</g>
<!-- org_liveSense_framework_apacheds&#45;&gt;org_apache_servicemix_bundles_ehcache -->
<g id="edge7" class="edge"><title>org_liveSense_framework_apacheds&#45;&gt;org_apache_servicemix_bundles_ehcache</title>
<path fill="none" stroke="yellow" d="M763.119,-222.937C804.23,-212.328 857.229,-198.651 900.059,-187.598"/>
<polygon fill="yellow" stroke="yellow" points="901.064,-190.953 909.873,-185.065 899.315,-184.175 901.064,-190.953"/>
</g>
<!-- org_ops4j_pax_logging_pax_logging_api -->
<g id="node9" class="node"><title>org_ops4j_pax_logging_pax_logging_api</title>
<polygon fill="green" stroke="black" points="1223.5,-149 1223.5,-185 1396.5,-185 1396.5,-149 1223.5,-149"/>
<text text-anchor="middle" x="1310" y="-174.1" font-family="Arial" font-size="8.00">OPS4J Pax Logging &#45; API</text>
<polyline fill="none" stroke="black" points="1223.5,-167 1396.5,-167 "/>
<text text-anchor="middle" x="1310" y="-156.1" font-family="Arial" font-size="8.00">org.ops4j.pax.logging.pax&#45;logging&#45;api(1.7.0)</text>
</g>
<!-- org_liveSense_framework_apacheds&#45;&gt;org_ops4j_pax_logging_pax_logging_api -->
<g id="edge8" class="edge"><title>org_liveSense_framework_apacheds&#45;&gt;org_ops4j_pax_logging_pax_logging_api</title>
<path fill="none" stroke="yellow" d="M796.41,-232.032C898.484,-223.299 1062.12,-207.768 1213.49,-186.006"/>
<polygon fill="yellow" stroke="yellow" points="1214.05,-189.462 1223.45,-184.564 1213.05,-182.534 1214.05,-189.462"/>
</g>
<!-- org_apache_mina_core -->
<g id="node10" class="node"><title>org_apache_mina_core</title>
<polygon fill="green" stroke="black" points="1088.5,-149 1088.5,-185 1205.5,-185 1205.5,-149 1088.5,-149"/>
<text text-anchor="middle" x="1147" y="-174.1" font-family="Arial" font-size="8.00">Apache MINA Core</text>
<polyline fill="none" stroke="black" points="1088.5,-167 1205.5,-167 "/>
<text text-anchor="middle" x="1147" y="-156.1" font-family="Arial" font-size="8.00">org.apache.mina.core(2.0.7)</text>
</g>
<!-- org_liveSense_framework_apacheds&#45;&gt;org_apache_mina_core -->
<g id="edge9" class="edge"><title>org_liveSense_framework_apacheds&#45;&gt;org_apache_mina_core</title>
<path fill="none" stroke="yellow" d="M796.084,-229.256C871.101,-220.361 976.794,-206.208 1078.65,-185.937"/>
<polygon fill="yellow" stroke="yellow" points="1079.38,-189.36 1088.5,-183.956 1078,-182.498 1079.38,-189.36"/>
</g>
<!-- org_apache_servicemix_bundles_junit -->
<g id="node11" class="node"><title>org_apache_servicemix_bundles_junit</title>
<polygon fill="#3182bd" stroke="black" points="518.5,-75 518.5,-111 691.5,-111 691.5,-75 518.5,-75"/>
<text text-anchor="middle" x="605" y="-100.1" font-family="Arial" font-size="8.00">Apache ServiceMix :: Bundles :: junit</text>
<polyline fill="none" stroke="black" points="518.5,-93 691.5,-93 "/>
<text text-anchor="middle" x="605" y="-82.1" font-family="Arial" font-size="8.00">org.apache.servicemix.bundles.junit(3.8.2.4)</text>
</g>
<!-- bcprov&#45;&gt;org_apache_servicemix_bundles_junit -->
<g id="edge10" class="edge"><title>bcprov&#45;&gt;org_apache_servicemix_bundles_junit</title>
<path fill="none" stroke="green" d="M802.172,-151.602C799.097,-150.324 796.003,-149.101 793,-148 757.45,-134.972 717.206,-123.049 683.099,-113.74"/>
<polygon fill="green" stroke="green" points="683.756,-110.292 673.189,-111.061 681.929,-117.049 683.756,-110.292"/>
</g>
<!-- org_apache_servicemix_bundles_ehcache&#45;&gt;org_ops4j_pax_logging_pax_logging_api -->
<g id="edge11" class="edge"><title>org_apache_servicemix_bundles_ehcache&#45;&gt;org_ops4j_pax_logging_pax_logging_api</title>
<path fill="none" stroke="green" d="M1020.01,-185.003C1040.59,-192.481 1065.66,-200.276 1089,-204 1139.91,-212.123 1154.18,-212.692 1205,-204 1223.16,-200.895 1242.34,-194.974 1259.28,-188.765"/>
<polygon fill="green" stroke="green" points="1260.86,-191.91 1268.97,-185.094 1258.38,-185.365 1260.86,-191.91"/>
</g>
<!-- org_apache_geronimo_specs_geronimo_servlet_3_0_spec -->
<g id="node12" class="node"><title>org_apache_geronimo_specs_geronimo_servlet_3_0_spec</title>
<polygon fill="#3182bd" stroke="black" points="710,-75 710,-111 940,-111 940,-75 710,-75"/>
<text text-anchor="middle" x="825" y="-100.1" font-family="Arial" font-size="8.00">Servlet 3.0</text>
<polyline fill="none" stroke="black" points="710,-93 940,-93 "/>
<text text-anchor="middle" x="825" y="-82.1" font-family="Arial" font-size="8.00">org.apache.geronimo.specs.geronimo&#45;servlet_3.0_spec(1.0)</text>
</g>
<!-- org_apache_servicemix_bundles_ehcache&#45;&gt;org_apache_geronimo_specs_geronimo_servlet_3_0_spec -->
<g id="edge12" class="edge"><title>org_apache_servicemix_bundles_ehcache&#45;&gt;org_apache_geronimo_specs_geronimo_servlet_3_0_spec</title>
<path fill="none" stroke="green" d="M940.215,-148.937C919.23,-138.931 892.521,-126.196 870.105,-115.507"/>
<polygon fill="green" stroke="green" points="871.322,-112.21 860.789,-111.065 868.309,-118.528 871.322,-112.21"/>
</g>
<!-- org_apache_geronimo_specs_geronimo_jms_1_1_spec -->
<g id="node13" class="node"><title>org_apache_geronimo_specs_geronimo_jms_1_1_spec</title>
<polygon fill="#3182bd" stroke="black" points="958,-75 958,-111 1184,-111 1184,-75 958,-75"/>
<text text-anchor="middle" x="1071" y="-100.1" font-family="Arial" font-size="8.00">geronimo&#45;jms_1.1_spec</text>
<polyline fill="none" stroke="black" points="958,-93 1184,-93 "/>
<text text-anchor="middle" x="1071" y="-82.1" font-family="Arial" font-size="8.00">org.apache.geronimo.specs.geronimo&#45;jms_1.1_spec(1.1.1)</text>
</g>
<!-- org_apache_servicemix_bundles_ehcache&#45;&gt;org_apache_geronimo_specs_geronimo_jms_1_1_spec -->
<g id="edge13" class="edge"><title>org_apache_servicemix_bundles_ehcache&#45;&gt;org_apache_geronimo_specs_geronimo_jms_1_1_spec</title>
<path fill="none" stroke="green" d="M998.514,-148.937C1010.96,-139.501 1026.62,-127.639 1040.19,-117.354"/>
<polygon fill="green" stroke="green" points="1042.46,-120.02 1048.32,-111.19 1038.23,-114.441 1042.46,-120.02"/>
</g>
<!-- org_apache_felix_eventadmin -->
<g id="node14" class="node"><title>org_apache_felix_eventadmin</title>
<polygon fill="#9ecae1" stroke="black" points="1240,-75 1240,-111 1380,-111 1380,-75 1240,-75"/>
<text text-anchor="middle" x="1310" y="-100.1" font-family="Arial" font-size="8.00">Apache Felix EventAdmin</text>
<polyline fill="none" stroke="black" points="1240,-93 1380,-93 "/>
<text text-anchor="middle" x="1310" y="-82.1" font-family="Arial" font-size="8.00">org.apache.felix.eventadmin(1.3.2)</text>
</g>
<!-- org_ops4j_pax_logging_pax_logging_api&#45;&gt;org_apache_felix_eventadmin -->
<g id="edge15" class="edge"><title>org_ops4j_pax_logging_pax_logging_api&#45;&gt;org_apache_felix_eventadmin</title>
<path fill="none" stroke="#3182bd" d="M1304.16,-148.937C1303.3,-140.807 1303.05,-130.876 1303.41,-121.705"/>
<polygon fill="#3182bd" stroke="#3182bd" points="1306.92,-121.658 1304.12,-111.441 1299.94,-121.176 1306.92,-121.658"/>
</g>
<!-- org_apache_mina_core&#45;&gt;org_ops4j_pax_logging_pax_logging_api -->
<g id="edge14" class="edge"><title>org_apache_mina_core&#45;&gt;org_ops4j_pax_logging_pax_logging_api</title>
<path fill="none" stroke="green" d="M1205.58,-167C1208.04,-167 1210.51,-167 1212.98,-167"/>
<polygon fill="green" stroke="green" points="1213.12,-170.5 1223.12,-167 1213.12,-163.5 1213.12,-170.5"/>
</g>
<!-- org_apache_felix_eventadmin&#45;&gt;org_ops4j_pax_logging_pax_logging_api -->
<g id="edge16" class="edge"><title>org_apache_felix_eventadmin&#45;&gt;org_ops4j_pax_logging_pax_logging_api</title>
<path fill="none" stroke="#9ecae1" d="M1315.88,-111.441C1316.72,-119.625 1316.95,-129.572 1316.57,-138.719"/>
<polygon fill="#9ecae1" stroke="#9ecae1" points="1313.06,-138.713 1315.84,-148.937 1320.04,-139.212 1313.06,-138.713"/>
</g>
<!-- org_apache_felix_configadmin -->
<g id="node15" class="node"><title>org_apache_felix_configadmin</title>
<polygon fill="#deebf7" stroke="black" points="1136,-1 1136,-37 1302,-37 1302,-1 1136,-1"/>
<text text-anchor="middle" x="1219" y="-26.1" font-family="Arial" font-size="8.00">Apache Felix Configuration Admin Service</text>
<polyline fill="none" stroke="black" points="1136,-19 1302,-19 "/>
<text text-anchor="middle" x="1219" y="-8.1" font-family="Arial" font-size="8.00">org.apache.felix.configadmin(1.6.0)</text>
</g>
<!-- org_apache_felix_eventadmin&#45;&gt;org_apache_felix_configadmin -->
<g id="edge17" class="edge"><title>org_apache_felix_eventadmin&#45;&gt;org_apache_felix_configadmin</title>
<path fill="none" stroke="#9ecae1" d="M1288.43,-74.937C1276.62,-65.5902 1261.8,-53.8625 1248.89,-43.6456"/>
<polygon fill="#9ecae1" stroke="#9ecae1" points="1250.74,-40.6501 1240.73,-37.19 1246.4,-46.1397 1250.74,-40.6501"/>
</g>
<!-- org_apache_felix_metatype -->
<g id="node16" class="node"><title>org_apache_felix_metatype</title>
<polygon fill="#deebf7" stroke="black" points="1334.5,-1 1334.5,-37 1465.5,-37 1465.5,-1 1334.5,-1"/>
<text text-anchor="middle" x="1400" y="-26.1" font-family="Arial" font-size="8.00">Apache Felix Metatype Service</text>
<polyline fill="none" stroke="black" points="1334.5,-19 1465.5,-19 "/>
<text text-anchor="middle" x="1400" y="-8.1" font-family="Arial" font-size="8.00">org.apache.felix.metatype(1.0.6)</text>
</g>
<!-- org_apache_felix_eventadmin&#45;&gt;org_apache_felix_metatype -->
<g id="edge18" class="edge"><title>org_apache_felix_eventadmin&#45;&gt;org_apache_felix_metatype</title>
<path fill="none" stroke="#9ecae1" d="M1331.33,-74.937C1343.01,-65.5902 1357.67,-53.8625 1370.44,-43.6456"/>
<polygon fill="#9ecae1" stroke="#9ecae1" points="1372.89,-46.1701 1378.51,-37.19 1368.52,-40.704 1372.89,-46.1701"/>
</g>
<!-- org_apache_felix_configadmin&#45;&gt;org_ops4j_pax_logging_pax_logging_api -->
<g id="edge19" class="edge"><title>org_apache_felix_configadmin&#45;&gt;org_ops4j_pax_logging_pax_logging_api</title>
<path fill="none" stroke="#deebf7" d="M1217.24,-37.3142C1216.11,-56.9083 1216.93,-89.0738 1231,-112 1238.84,-124.77 1250.96,-135.244 1263.37,-143.456"/>
<polygon fill="#deebf7" stroke="#deebf7" points="1261.62,-146.487 1271.96,-148.779 1265.3,-140.537 1261.62,-146.487"/>
</g>
<!-- org_apache_felix_metatype&#45;&gt;org_ops4j_pax_logging_pax_logging_api -->
<g id="edge20" class="edge"><title>org_apache_felix_metatype&#45;&gt;org_ops4j_pax_logging_pax_logging_api</title>
<path fill="none" stroke="#deebf7" d="M1401.99,-37.2982C1403.37,-56.8776 1402.93,-89.0296 1389,-112 1381.23,-124.812 1369.13,-135.298 1356.72,-143.508"/>
<polygon fill="#deebf7" stroke="#deebf7" points="1354.78,-140.59 1348.12,-148.829 1358.47,-146.542 1354.78,-140.59"/>
</g>
</g>
</svg>
